<svg width="16" height="16" viewBox="0 0 16 16" fill="none" xmlns="http://www.w3.org/2000/svg">
<path d="M13.7524 10.6656C13.7005 10.6031 13.6496 10.5406 13.5996 10.4803C12.9121 9.64869 12.4962 9.14682 12.4962 6.79276C12.4962 5.57401 12.2046 4.57401 11.6299 3.82401C11.2062 3.26995 10.6334 2.84963 9.87835 2.53901C9.86864 2.5336 9.85996 2.52651 9.85273 2.51807C9.58117 1.6087 8.83804 0.999634 7.99992 0.999634C7.16179 0.999634 6.41898 1.6087 6.14742 2.51713C6.14017 2.52527 6.13162 2.53213 6.12211 2.53745C4.36023 3.26276 3.50398 4.65432 3.50398 6.79182C3.50398 9.14682 3.08867 9.64869 2.40054 10.4793C2.35054 10.5396 2.29961 10.6009 2.24773 10.6646C2.11373 10.8262 2.02883 11.0228 2.00308 11.2312C1.97733 11.4395 2.0118 11.6509 2.10242 11.8403C2.29523 12.2465 2.70617 12.4987 3.17523 12.4987H12.828C13.2949 12.4987 13.703 12.2468 13.8965 11.8424C13.9875 11.653 14.0223 11.4415 13.9968 11.2329C13.9712 11.0243 13.8864 10.8274 13.7524 10.6656Z" fill="#0075FF"/>
<path d="M7.99983 14.9999C8.4514 14.9995 8.89446 14.8769 9.28201 14.6451C9.66955 14.4134 9.98714 14.081 10.2011 13.6833C10.2112 13.6643 10.2161 13.6429 10.2155 13.6214C10.2149 13.5998 10.2088 13.5788 10.1976 13.5603C10.1865 13.5419 10.1708 13.5266 10.152 13.516C10.1332 13.5054 10.112 13.4999 10.0905 13.4999H5.90983C5.88825 13.4998 5.86701 13.5053 5.84819 13.5159C5.82937 13.5265 5.8136 13.5417 5.80243 13.5602C5.79126 13.5787 5.78506 13.5997 5.78444 13.6213C5.78382 13.6429 5.7888 13.6642 5.79889 13.6833C6.01281 14.0809 6.33035 14.4133 6.71783 14.6451C7.10532 14.8769 7.54831 14.9995 7.99983 14.9999Z" fill="#0075FF"/>
</svg>
