<svg width="16" height="16" viewBox="0 0 16 16" fill="none" xmlns="http://www.w3.org/2000/svg">
<path d="M1.43762 11.5151C1.43762 11.9503 1.61047 12.3676 1.91815 12.6752C2.22583 12.9829 2.64313 13.1558 3.07825 13.1558H12.922C13.3571 13.1558 13.7744 12.9829 14.0821 12.6752C14.3898 12.3676 14.5626 11.9503 14.5626 11.5151V7.00342H1.43762V11.5151ZM3.37122 9.28857C3.37122 9.05547 3.46381 8.83192 3.62864 8.66709C3.79347 8.50227 4.01702 8.40967 4.25012 8.40967H5.65637C5.88947 8.40967 6.11302 8.50227 6.27785 8.66709C6.44268 8.83192 6.53528 9.05547 6.53528 9.28857V9.87451C6.53528 10.1076 6.44268 10.3312 6.27785 10.496C6.11302 10.6608 5.88947 10.7534 5.65637 10.7534H4.25012C4.01702 10.7534 3.79347 10.6608 3.62864 10.496C3.46381 10.3312 3.37122 10.1076 3.37122 9.87451V9.28857Z" fill="#0075FF"/>
<path d="M12.922 2.84302H3.07825C2.64313 2.84302 2.22583 3.01587 1.91815 3.32355C1.61047 3.63122 1.43762 4.04852 1.43762 4.48364V5.24536H14.5626V4.48364C14.5626 4.04852 14.3898 3.63122 14.0821 3.32355C13.7744 3.01587 13.3571 2.84302 12.922 2.84302Z" fill="#0075FF"/>
</svg>
