<svg width="16" height="17" viewBox="0 0 16 17" fill="none" xmlns="http://www.w3.org/2000/svg">
<path d="M5.49979 14.4999C6.05207 14.4999 6.49979 14.0522 6.49979 13.4999C6.49979 12.9476 6.05207 12.4999 5.49979 12.4999C4.9475 12.4999 4.49979 12.9476 4.49979 13.4999C4.49979 14.0522 4.9475 14.4999 5.49979 14.4999Z" fill="#4299E1"/>
<path d="M12.4998 14.4999C13.0521 14.4999 13.4998 14.0522 13.4998 13.4999C13.4998 12.9476 13.0521 12.4999 12.4998 12.4999C11.9475 12.4999 11.4998 12.9476 11.4998 13.4999C11.4998 14.0522 11.9475 14.4999 12.4998 14.4999Z" fill="#4299E1"/>
<path d="M14.2748 4.2745C14.2046 4.18857 14.1161 4.11937 14.0157 4.07191C13.9154 4.02445 13.8058 3.99993 13.6948 4.00012H4.18388L3.99232 2.91325C3.97189 2.79747 3.91132 2.6926 3.82126 2.61705C3.73119 2.5415 3.61738 2.5001 3.49982 2.50012H1.49982C1.36721 2.50012 1.24003 2.5528 1.14626 2.64657C1.0525 2.74034 0.999817 2.86751 0.999817 3.00012C0.999817 3.13273 1.0525 3.25991 1.14626 3.35368C1.24003 3.44744 1.36721 3.50012 1.49982 3.50012H3.08044L4.50732 11.587C4.52774 11.7028 4.58831 11.8076 4.67838 11.8832C4.76845 11.9587 4.88226 12.0001 4.99982 12.0001H12.9998C13.1324 12.0001 13.2596 11.9474 13.3534 11.8537C13.4471 11.7599 13.4998 11.6327 13.4998 11.5001C13.4998 11.3675 13.4471 11.2403 13.3534 11.1466C13.2596 11.0528 13.1324 11.0001 12.9998 11.0001H5.41919L5.24294 10.0001H12.7948C12.9682 9.9999 13.1362 9.93978 13.2704 9.82993C13.4045 9.72008 13.4966 9.56725 13.5311 9.39731L14.4311 4.89731C14.4527 4.7884 14.45 4.67604 14.423 4.56834C14.3959 4.46063 14.3453 4.36027 14.2748 4.2745V4.2745Z" fill="#4299E1"/>
</svg>
