<svg width="13" height="13" viewBox="0 0 13 13" fill="none" xmlns="http://www.w3.org/2000/svg">
<path d="M4.54688 11.1875C4.97835 11.1875 5.32812 10.8377 5.32812 10.4062C5.32812 9.97478 4.97835 9.625 4.54688 9.625C4.1154 9.625 3.76562 9.97478 3.76562 10.4062C3.76562 10.8377 4.1154 11.1875 4.54688 11.1875Z" fill="white"/>
<path d="M10.0156 11.1875C10.4471 11.1875 10.7969 10.8377 10.7969 10.4062C10.7969 9.97478 10.4471 9.625 10.0156 9.625C9.58415 9.625 9.23438 9.97478 9.23438 10.4062C9.23438 10.8377 9.58415 11.1875 10.0156 11.1875Z" fill="white"/>
<path d="M11.4023 3.19885C11.3475 3.13173 11.2783 3.07766 11.1999 3.04058C11.1216 3.00351 11.0359 2.98435 10.9492 2.9845H3.5188L3.36914 2.13538C3.35318 2.04493 3.30586 1.963 3.2355 1.90397C3.16513 1.84495 3.07622 1.8126 2.98437 1.81262H1.42187C1.31827 1.81262 1.21892 1.85378 1.14566 1.92703C1.0724 2.00029 1.03125 2.09965 1.03125 2.20325C1.03125 2.30685 1.0724 2.4062 1.14566 2.47946C1.21892 2.55272 1.31827 2.59387 1.42187 2.59387H2.65674L3.77148 8.91174C3.78744 9.00219 3.83476 9.08412 3.90513 9.14315C3.97549 9.20217 4.0644 9.23451 4.15625 9.23449H10.4062C10.5098 9.23449 10.6092 9.19334 10.6825 9.12008C10.7557 9.04683 10.7969 8.94747 10.7969 8.84387C10.7969 8.74027 10.7557 8.64091 10.6825 8.56766C10.6092 8.4944 10.5098 8.45325 10.4062 8.45325H4.48389L4.34619 7.672H10.2461C10.3816 7.67182 10.5128 7.62485 10.6176 7.53903C10.7224 7.45321 10.7944 7.33382 10.8213 7.20105L11.5244 3.68542C11.5414 3.60034 11.5392 3.51256 11.5181 3.42841C11.497 3.34427 11.4574 3.26586 11.4023 3.19885Z" fill="white"/>
</svg>
