<svg width="15" height="15" viewBox="0 0 15 15" fill="none" xmlns="http://www.w3.org/2000/svg">
<path d="M7.49994 1.40601C4.13988 1.40601 1.40619 4.1397 1.40619 7.49975C1.40619 10.8598 4.13988 13.5935 7.49994 13.5935C10.86 13.5935 13.5937 10.8598 13.5937 7.49975C13.5937 4.1397 10.86 1.40601 7.49994 1.40601ZM10.6713 5.45747L6.73383 10.145C6.69063 10.1964 6.63689 10.238 6.57623 10.2668C6.51558 10.2957 6.44943 10.3112 6.38226 10.3123H6.37435C6.30865 10.3122 6.24369 10.2984 6.18368 10.2716C6.12367 10.2449 6.06995 10.2058 6.02601 10.157L4.33851 8.28198C4.29566 8.23653 4.26232 8.18296 4.24046 8.12444C4.2186 8.06592 4.20866 8.00361 4.21122 7.94119C4.21378 7.87877 4.2288 7.8175 4.25538 7.76096C4.28196 7.70443 4.31958 7.65377 4.36601 7.61198C4.41245 7.57019 4.46677 7.53811 4.52579 7.51761C4.5848 7.49712 4.64732 7.48862 4.70966 7.49263C4.77201 7.49664 4.83292 7.51308 4.88882 7.54096C4.94473 7.56885 4.99449 7.60763 5.03519 7.65503L6.36205 9.12925L9.95355 4.85454C10.0341 4.7614 10.1481 4.7037 10.2708 4.69392C10.3936 4.68414 10.5153 4.72306 10.6096 4.80226C10.7039 4.88147 10.7632 4.99461 10.7748 5.11721C10.7863 5.23981 10.7492 5.36204 10.6713 5.45747Z" fill="#01B574"/>
</svg>
