<svg width="16" height="17" viewBox="0 0 16 17" fill="none" xmlns="http://www.w3.org/2000/svg">
<path d="M0.999817 12.2495C0.999817 12.7136 1.18419 13.1588 1.51238 13.4869C1.84057 13.8151 2.28569 13.9995 2.74982 13.9995H13.2498C13.7139 13.9995 14.1591 13.8151 14.4873 13.4869C14.8154 13.1588 14.9998 12.7136 14.9998 12.2495V7.43701H0.999817V12.2495ZM3.06232 9.87451C3.06232 9.62587 3.16109 9.38741 3.3369 9.2116C3.51272 9.03578 3.75118 8.93701 3.99982 8.93701H5.49982C5.74846 8.93701 5.98691 9.03578 6.16273 9.2116C6.33854 9.38741 6.43732 9.62587 6.43732 9.87451V10.4995C6.43732 10.7482 6.33854 10.9866 6.16273 11.1624C5.98691 11.3382 5.74846 11.437 5.49982 11.437H3.99982C3.75118 11.437 3.51272 11.3382 3.3369 11.1624C3.16109 10.9866 3.06232 10.7482 3.06232 10.4995V9.87451Z" fill="#F6AD55"/>
<path d="M13.2498 2.99915H2.74982C2.28569 2.99915 1.84057 3.18352 1.51238 3.51171C1.18419 3.8399 0.999817 4.28502 0.999817 4.74914V5.56164H14.9998V4.74914C14.9998 4.28502 14.8154 3.8399 14.4873 3.51171C14.1591 3.18352 13.7139 2.99915 13.2498 2.99915V2.99915Z" fill="#F6AD55"/>
</svg>
