<svg width="24" height="23" viewBox="0 0 24 23" fill="none" xmlns="http://www.w3.org/2000/svg">
<path d="M7.078 1.66821H11.121C11.1427 1.66821 11.1638 1.67279 11.1835 1.68091L11.2372 1.71606C11.268 1.74683 11.285 1.78876 11.285 1.83228V7.98462C11.285 8.477 11.4561 8.95185 11.7655 9.32935L11.9061 9.48462C12.3039 9.8824 12.8436 10.1057 13.4061 10.1057H19.5585C19.602 10.1057 19.6439 10.1228 19.6747 10.1536C19.7054 10.1843 19.7225 10.2263 19.7225 10.2698V18.5315C19.7225 19.1817 19.4964 19.8084 19.0878 20.3069L18.9022 20.512C18.377 21.0372 17.6646 21.3323 16.9218 21.3323H7.078C6.42784 21.3323 5.80107 21.1061 5.30261 20.6975L5.09753 20.512C4.57229 19.9867 4.27722 19.2743 4.27722 18.5315V4.46899C4.27722 3.81883 4.50339 3.19207 4.91199 2.6936L5.09753 2.48853C5.62278 1.96328 6.33519 1.66821 7.078 1.66821ZM8.48425 15.7073C8.34209 15.7073 8.20434 15.7497 8.08777 15.8274L7.97839 15.9163C7.84434 16.0503 7.76941 16.2325 7.76941 16.4221C7.76941 16.5643 7.81182 16.702 7.88953 16.8186L7.97839 16.928C8.11245 17.062 8.29467 17.137 8.48425 17.137H15.5155C15.7051 17.137 15.8873 17.062 16.0214 16.928C16.1554 16.7939 16.2303 16.6117 16.2303 16.4221C16.2303 16.2325 16.1554 16.0503 16.0214 15.9163C15.8873 15.7822 15.7051 15.7073 15.5155 15.7073H8.48425ZM8.48425 12.1917C8.34209 12.1917 8.20434 12.2341 8.08777 12.3118L7.97839 12.4006C7.84434 12.5347 7.76941 12.7169 7.76941 12.9065C7.76941 13.0487 7.81182 13.1864 7.88953 13.303L7.97839 13.4124C8.11245 13.5464 8.29467 13.6213 8.48425 13.6213H15.5155C15.7051 13.6213 15.8873 13.5464 16.0214 13.4124C16.1554 13.2783 16.2303 13.0961 16.2303 12.9065C16.2303 12.7169 16.1554 12.5347 16.0214 12.4006C15.8873 12.2666 15.7051 12.1917 15.5155 12.1917H8.48425Z" fill="white" stroke="#0075FF" stroke-width="0.0234375"/>
<path d="M12.8055 2.2063L12.8445 2.22778L19.1639 8.54712L19.1854 8.58618C19.1882 8.60088 19.1862 8.61629 19.1805 8.63013L19.1531 8.66431C19.1407 8.67268 19.1252 8.67694 19.1102 8.677H13.4061C13.2227 8.677 13.0465 8.60452 12.9168 8.47485C12.7872 8.34519 12.7147 8.16895 12.7147 7.9856V2.28149L12.7274 2.2395L12.7615 2.21118C12.7753 2.20547 12.7908 2.20344 12.8055 2.2063Z" fill="white" stroke="#0075FF" stroke-width="0.0234375"/>
</svg>
