<svg width="24" height="24" viewBox="0 0 24 24" fill="none" xmlns="http://www.w3.org/2000/svg">
<g clip-path="url(#clip0_1_1105)">
<path d="M5.99988 10C4.89988 10 3.99988 10.9 3.99988 12C3.99988 13.1 4.89988 14 5.99988 14C7.09988 14 7.99988 13.1 7.99988 12C7.99988 10.9 7.09988 10 5.99988 10ZM17.9999 10C16.8999 10 15.9999 10.9 15.9999 12C15.9999 13.1 16.8999 14 17.9999 14C19.0999 14 19.9999 13.1 19.9999 12C19.9999 10.9 19.0999 10 17.9999 10ZM11.9999 10C10.8999 10 9.99988 10.9 9.99988 12C9.99988 13.1 10.8999 14 11.9999 14C13.0999 14 13.9999 13.1 13.9999 12C13.9999 10.9 13.0999 10 11.9999 10Z" fill="#7551FF"/>
</g>
<defs>
<clipPath id="clip0_1_1105">
<rect width="24" height="24" fill="white"/>
</clipPath>
</defs>
</svg>
