<svg width="16" height="16" viewBox="0 0 16 16" fill="none" xmlns="http://www.w3.org/2000/svg">
<path d="M10.2453 2.39175C9.67522 1.77622 8.87893 1.43726 8.00003 1.43726C7.11643 1.43726 6.31751 1.77417 5.75003 2.38589C5.1764 3.00435 4.8969 3.84487 4.96253 4.75249C5.09261 6.54311 6.4552 7.99975 8.00003 7.99975C9.54485 7.99975 10.9051 6.54341 11.0372 4.75307C11.1037 3.85366 10.8225 3.01489 10.2453 2.39175Z" fill="#0075FF"/>
<path d="M13.1563 14.5615H2.8438C2.70881 14.5633 2.57514 14.5349 2.4525 14.4785C2.32985 14.4221 2.22133 14.3391 2.13481 14.2354C1.94438 14.0078 1.86762 13.697 1.92446 13.3826C2.17173 12.0109 2.9434 10.8587 4.15629 10.0498C5.23383 9.33174 6.59877 8.93652 8.00004 8.93652C9.40131 8.93652 10.7663 9.33203 11.8438 10.0498C13.0567 10.8584 13.8284 12.0106 14.0756 13.3823C14.1325 13.6967 14.0557 14.0075 13.8653 14.2352C13.7788 14.3388 13.6703 14.4219 13.5476 14.4784C13.425 14.5348 13.2913 14.5632 13.1563 14.5615Z" fill="#0075FF"/>
</svg>
