<svg width="13" height="13" viewBox="0 0 13 13" fill="none" xmlns="http://www.w3.org/2000/svg">
<path d="M11.9111 1.18465C11.9067 1.16306 11.8962 1.14319 11.8808 1.12736C11.8655 1.11154 11.8459 1.10041 11.8245 1.0953C10.3945 0.745689 7.09058 1.99154 5.30054 3.78084C4.98128 4.09753 4.69022 4.44144 4.43067 4.80868C3.87867 4.75985 3.32667 4.80062 2.85621 5.0057C1.52882 5.58993 1.14234 7.11434 1.03468 7.7701C1.02857 7.80599 1.03087 7.84281 1.04141 7.87766C1.05194 7.91252 1.07041 7.94445 1.09538 7.97095C1.12034 7.99745 1.15111 8.0178 1.18527 8.0304C1.21943 8.04299 1.25605 8.04749 1.29224 8.04354L3.42384 7.80843C3.42536 7.96914 3.43505 8.12966 3.45289 8.28939C3.46361 8.4003 3.51285 8.50396 3.59205 8.58236L4.41749 9.40584C4.49595 9.48494 4.59957 9.53415 4.71046 9.545C4.86929 9.56277 5.02891 9.57246 5.18873 9.57405L4.95484 11.703C4.95094 11.7391 4.95547 11.7757 4.96809 11.8099C4.9807 11.844 5.00105 11.8748 5.02754 11.8997C5.05403 11.9247 5.08594 11.9431 5.12077 11.9537C5.15559 11.9642 5.19239 11.9666 5.22828 11.9605C5.88282 11.8555 7.40992 11.4691 7.99073 10.1417C8.19581 9.67122 8.2378 9.12191 8.19043 8.57259C8.55856 8.31303 8.90337 8.02189 9.22095 7.70247C11.0166 5.91585 12.2554 2.68563 11.9111 1.18465ZM7.42945 5.57113C7.26548 5.40727 7.1538 5.19846 7.10852 4.97112C7.06324 4.74378 7.0864 4.50811 7.17507 4.29393C7.26375 4.07976 7.41395 3.89669 7.60668 3.76789C7.79941 3.63909 8.02601 3.57034 8.25782 3.57034C8.48962 3.57034 8.71623 3.63909 8.90896 3.76789C9.10169 3.89669 9.25189 4.07976 9.34056 4.29393C9.42924 4.50811 9.4524 4.74378 9.40712 4.97112C9.36184 5.19846 9.25015 5.40727 9.08619 5.57113C8.97746 5.68001 8.84833 5.76639 8.70619 5.82532C8.56405 5.88426 8.41169 5.91459 8.25782 5.91459C8.10394 5.91459 7.95158 5.88426 7.80944 5.82532C7.6673 5.76639 7.53818 5.68001 7.42945 5.57113Z" fill="white"/>
<path d="M4.36136 10.0023C4.22757 10.1364 4.01297 10.1886 3.75467 10.2333C3.17435 10.3322 2.6619 9.83069 2.76614 9.24402C2.80594 9.02161 2.92361 8.70984 2.99686 8.6366C3.01287 8.6209 3.02352 8.60055 3.02731 8.57845C3.0311 8.55635 3.02783 8.53362 3.01796 8.51348C3.0081 8.49335 2.99214 8.47683 2.97235 8.46628C2.95257 8.45573 2.92996 8.45168 2.90774 8.45471C2.58322 8.49442 2.28131 8.64155 2.05008 8.87268C1.4761 9.44714 1.42191 11.5787 1.42191 11.5787C1.42191 11.5787 3.55472 11.5245 4.12869 10.9501C4.36054 10.719 4.50786 10.4167 4.5469 10.0917C4.55594 9.98962 4.43167 9.92883 4.36136 10.0023Z" fill="white"/>
</svg>
