<svg width="13" height="13" viewBox="0 0 13 13" fill="none" xmlns="http://www.w3.org/2000/svg">
<path d="M11.7139 3.19288C11.6858 3.13817 11.6451 3.09088 11.5953 3.05486C11.5454 3.01884 11.4877 2.9951 11.427 2.98559C11.3662 2.97607 11.304 2.98104 11.2455 3.00009C11.187 3.01914 11.1339 3.05174 11.0904 3.09522L9.59037 4.5962C9.51674 4.66876 9.41751 4.70944 9.31412 4.70944C9.21074 4.70944 9.11151 4.66876 9.03788 4.5962L8.38944 3.94678C8.35316 3.91051 8.32438 3.86744 8.30474 3.82005C8.28511 3.77265 8.275 3.72185 8.275 3.67054C8.275 3.61924 8.28511 3.56843 8.30474 3.52103C8.32438 3.47364 8.35316 3.43057 8.38944 3.39429L9.88309 1.9004C9.92787 1.85563 9.96109 1.80064 9.9799 1.74018C9.9987 1.67972 10.0025 1.61559 9.99105 1.55332C9.97956 1.49106 9.95312 1.43251 9.91398 1.38273C9.87484 1.33296 9.82419 1.29344 9.76639 1.26759C8.63822 0.763192 7.23002 1.02638 6.34208 1.90772C5.58769 2.65675 5.36283 3.82716 5.72562 5.1189C5.74518 5.18779 5.7453 5.26074 5.72595 5.32969C5.7066 5.39863 5.66855 5.46088 5.61601 5.50953L1.55155 9.22169C1.39321 9.36385 1.2655 9.53679 1.17619 9.72994C1.08689 9.92309 1.03787 10.1324 1.03213 10.3451C1.02638 10.5578 1.06403 10.7695 1.14279 10.9672C1.22154 11.1649 1.33974 11.3445 1.49017 11.495C1.64061 11.6455 1.82013 11.7637 2.01778 11.8426C2.21544 11.9214 2.42708 11.9592 2.6398 11.9535C2.85252 11.9479 3.06186 11.8989 3.25505 11.8097C3.44824 11.7205 3.62123 11.5929 3.76347 11.4346L7.51542 7.36109C7.56337 7.30922 7.62456 7.27142 7.69241 7.25176C7.76025 7.2321 7.83218 7.23133 7.90043 7.24952C8.26819 7.35028 8.64754 7.40257 9.02885 7.40504C9.84428 7.40504 10.5599 7.14112 11.076 6.63258C12.0318 5.69093 12.1775 4.09376 11.7139 3.19288ZM2.67924 11.1672C2.51845 11.1848 2.35617 11.152 2.21481 11.0734C2.07345 10.9948 1.95997 10.8743 1.89003 10.7284C1.82009 10.5826 1.79714 10.4186 1.82435 10.2592C1.85156 10.0997 1.92759 9.95267 2.04194 9.83828C2.15629 9.72388 2.30333 9.6478 2.46276 9.62054C2.62219 9.59327 2.78616 9.61616 2.93203 9.68605C3.0779 9.75593 3.19848 9.86937 3.27713 10.0107C3.35578 10.152 3.38863 10.3143 3.37113 10.4751C3.35189 10.652 3.27281 10.8171 3.14699 10.9429C3.02117 11.0688 2.85615 11.1479 2.67924 11.1672Z" fill="white"/>
</svg>
