<svg width="13" height="13" viewBox="0 0 13 13" fill="none" xmlns="http://www.w3.org/2000/svg">
<path d="M6.49985 4.625C6.12901 4.625 5.7665 4.73497 5.45815 4.94099C5.14981 5.14702 4.90949 5.43986 4.76757 5.78247C4.62566 6.12508 4.58853 6.50208 4.66088 6.86579C4.73322 7.22951 4.9118 7.5636 5.17402 7.82582C5.43625 8.08805 5.77034 8.26662 6.13405 8.33897C6.49777 8.41132 6.87477 8.37419 7.21738 8.23227C7.55999 8.09036 7.85283 7.85003 8.05885 7.54169C8.26488 7.23335 8.37485 6.87084 8.37485 6.5C8.37336 6.00317 8.17534 5.52712 7.82403 5.17581C7.47272 4.8245 6.99667 4.62648 6.49985 4.625ZM10.548 6.5C10.547 6.6752 10.5342 6.85013 10.5095 7.02359L11.6507 7.91703C11.7004 7.95807 11.7339 8.01544 11.7452 8.0789C11.7565 8.14236 11.7448 8.20777 11.7123 8.26343L10.6328 10.1272C10.6 10.1824 10.5488 10.2242 10.4882 10.2453C10.4275 10.2665 10.3614 10.2655 10.3014 10.2427L8.95961 9.70367C8.68021 9.91882 8.37445 10.0974 8.04977 10.235L7.84914 11.6595C7.83792 11.7233 7.80488 11.7813 7.75567 11.8234C7.70647 11.8656 7.64415 11.8893 7.57938 11.8906H5.42032C5.35672 11.8894 5.29542 11.8666 5.24642 11.8261C5.19743 11.7855 5.16363 11.7295 5.15055 11.6673L4.94993 10.2427C4.62435 10.1067 4.31837 9.92787 4.04008 9.71093L2.69829 10.25C2.63831 10.2728 2.5722 10.2738 2.51159 10.2527C2.45097 10.2316 2.39973 10.1898 2.36688 10.1347L1.28735 8.27117C1.25486 8.2155 1.24321 8.1501 1.25451 8.08664C1.2658 8.02318 1.29929 7.9658 1.34899 7.92476L2.49016 7.03133C2.46582 6.85524 2.45298 6.67775 2.45172 6.5C2.4527 6.3248 2.46554 6.14987 2.49016 5.9764L1.34899 5.08297C1.29929 5.04193 1.2658 4.98455 1.25451 4.92109C1.24321 4.85763 1.25486 4.79223 1.28735 4.73656L2.36688 2.87281C2.3997 2.81764 2.45092 2.77581 2.51154 2.75467C2.57215 2.73354 2.63828 2.73446 2.69829 2.75727L4.04008 3.29633C4.31949 3.08117 4.62524 2.90262 4.94993 2.765L5.15055 1.34047C5.16178 1.27666 5.19482 1.21873 5.24402 1.17658C5.29323 1.13443 5.35554 1.11068 5.42032 1.10938H7.57938C7.64298 1.11061 7.70428 1.13337 7.75327 1.17394C7.80227 1.21451 7.83606 1.27048 7.84914 1.33273L8.04977 2.75727C8.37576 2.8932 8.68213 3.07204 8.96078 3.28906L10.3014 2.75C10.3614 2.72717 10.4275 2.72622 10.4881 2.74731C10.5487 2.7684 10.6 2.81018 10.6328 2.86531L11.7123 4.72906C11.7448 4.78473 11.7565 4.85013 11.7452 4.91359C11.7339 4.97705 11.7004 5.03443 11.6507 5.07547L10.5095 5.9689C10.5339 6.14491 10.5467 6.32232 10.548 6.5Z" fill="#718096"/>
</svg>
