<svg width="16" height="16" viewBox="0 0 16 16" fill="none" xmlns="http://www.w3.org/2000/svg">
<path d="M13.0392 7.06274H8.93762C8.56466 7.06274 8.20698 6.91458 7.94325 6.65086C7.67953 6.38714 7.53137 6.02945 7.53137 5.65649V1.55493C7.53137 1.52385 7.51903 1.49404 7.49705 1.47207C7.47507 1.45009 7.44526 1.43774 7.41418 1.43774H4.71887C4.22159 1.43774 3.74468 1.63529 3.39305 1.98692C3.04142 2.33855 2.84387 2.81546 2.84387 3.31274V12.6877C2.84387 13.185 3.04142 13.6619 3.39305 14.0136C3.74468 14.3652 4.22159 14.5627 4.71887 14.5627H11.2814C11.7787 14.5627 12.2556 14.3652 12.6072 14.0136C12.9588 13.6619 13.1564 13.185 13.1564 12.6877V7.17993C13.1564 7.14885 13.144 7.11904 13.122 7.09707C13.1001 7.07509 13.0703 7.06274 13.0392 7.06274Z" fill="#0075FF"/>
<path d="M12.782 6.02612L8.56877 1.81294C8.56058 1.80479 8.55016 1.79925 8.53883 1.79701C8.5275 1.79477 8.51575 1.79593 8.50508 1.80034C8.4944 1.80476 8.48527 1.81223 8.47882 1.82182C8.47238 1.83141 8.46892 1.84269 8.46887 1.85425V5.65727C8.46887 5.78159 8.51826 5.90082 8.60617 5.98873C8.69407 6.07664 8.8133 6.12602 8.93762 6.12602H12.7406C12.7522 6.12598 12.7635 6.12251 12.7731 6.11607C12.7827 6.10963 12.7901 6.1005 12.7946 6.08982C12.799 6.07914 12.8001 6.0674 12.7979 6.05607C12.7956 6.04473 12.7901 6.03431 12.782 6.02612Z" fill="#0075FF"/>
</svg>
