<svg width="26" height="26" viewBox="0 0 26 26" fill="none" xmlns="http://www.w3.org/2000/svg">
<path d="M13.0124 0.5C6.11238 0.5 0.524878 6.1 0.524878 13C0.524878 19.9 6.11238 25.5 13.0124 25.5C19.9249 25.5 25.5249 19.9 25.5249 13C25.5249 6.1 19.9249 0.5 13.0124 0.5ZM13.0249 23C7.49988 23 3.02488 18.525 3.02488 13C3.02488 7.475 7.49988 3 13.0249 3C18.5499 3 23.0249 7.475 23.0249 13C23.0249 18.525 18.5499 23 13.0249 23ZM17.3999 11.75C18.4374 11.75 19.2749 10.9125 19.2749 9.875C19.2749 8.8375 18.4374 8 17.3999 8C16.3624 8 15.5249 8.8375 15.5249 9.875C15.5249 10.9125 16.3624 11.75 17.3999 11.75ZM8.64988 11.75C9.68738 11.75 10.5249 10.9125 10.5249 9.875C10.5249 8.8375 9.68738 8 8.64988 8C7.61238 8 6.77488 8.8375 6.77488 9.875C6.77488 10.9125 7.61238 11.75 8.64988 11.75ZM13.0249 19.875C15.5624 19.875 17.7749 18.4875 18.9624 16.4375C19.1999 16.025 18.8999 15.5 18.4124 15.5H7.63738C7.16238 15.5 6.84988 16.025 7.08738 16.4375C8.27488 18.4875 10.4874 19.875 13.0249 19.875Z" fill="white"/>
</svg>
