<svg width="16" height="16" viewBox="0 0 16 16" fill="none" xmlns="http://www.w3.org/2000/svg">
<g clip-path="url(#clip0_1_1280)">
<path d="M3.54687 15.0317H2.60937C2.42289 15.0317 2.24405 14.9577 2.11219 14.8258C1.98033 14.6939 1.90625 14.5151 1.90625 14.3286V10.1099C1.90625 9.92338 1.98033 9.74454 2.11219 9.61268C2.24405 9.48082 2.42289 9.40674 2.60937 9.40674H3.54687C3.73335 9.40674 3.9122 9.48082 4.04406 9.61268C4.17592 9.74454 4.25 9.92338 4.25 10.1099V14.3286C4.25 14.5151 4.17592 14.6939 4.04406 14.8258C3.9122 14.9577 3.73335 15.0317 3.54687 15.0317V15.0317Z" fill="#0075FF"/>
<path d="M10.1095 15.0308H9.172C8.98552 15.0308 8.80667 14.9567 8.67481 14.8248C8.54295 14.693 8.46887 14.5141 8.46887 14.3276V7.29639C8.46887 7.10991 8.54295 6.93106 8.67481 6.7992C8.80667 6.66734 8.98552 6.59326 9.172 6.59326H10.1095C10.296 6.59326 10.4748 6.66734 10.6067 6.7992C10.7385 6.93106 10.8126 7.10991 10.8126 7.29639V14.3276C10.8126 14.5141 10.7385 14.693 10.6067 14.8248C10.4748 14.9567 10.296 15.0308 10.1095 15.0308V15.0308Z" fill="#0075FF"/>
<path d="M13.3907 15.0312H12.4532C12.2668 15.0312 12.0879 14.9572 11.9561 14.8253C11.8242 14.6934 11.7501 14.5146 11.7501 14.3281V4.01562C11.7501 3.82914 11.8242 3.6503 11.9561 3.51844C12.0879 3.38658 12.2668 3.3125 12.4532 3.3125H13.3907C13.5772 3.3125 13.7561 3.38658 13.8879 3.51844C14.0198 3.6503 14.0939 3.82914 14.0939 4.01562V14.3281C14.0939 14.5146 14.0198 14.6934 13.8879 14.8253C13.7561 14.9572 13.5772 15.0312 13.3907 15.0312V15.0312Z" fill="#0075FF"/>
<path d="M6.82825 15.031H5.89075C5.70427 15.031 5.52542 14.9569 5.39356 14.8251C5.2617 14.6932 5.18762 14.5144 5.18762 14.3279V1.67163C5.18762 1.48515 5.2617 1.30631 5.39356 1.17445C5.52542 1.04258 5.70427 0.968506 5.89075 0.968506H6.82825C7.01473 0.968506 7.19357 1.04258 7.32543 1.17445C7.45729 1.30631 7.53137 1.48515 7.53137 1.67163V14.3279C7.53137 14.5144 7.45729 14.6932 7.32543 14.8251C7.19357 14.9569 7.01473 15.031 6.82825 15.031V15.031Z" fill="#0075FF"/>
</g>
<defs>
<clipPath id="clip0_1_1280">
<rect width="15" height="15" fill="white" transform="translate(0.500122 0.5)"/>
</clipPath>
</defs>
</svg>
