<svg width="24" height="23" viewBox="0 0 24 23" fill="none" xmlns="http://www.w3.org/2000/svg">
<path d="M4.94662 4.81829H19.0091C19.1734 4.81821 19.3375 4.82863 19.5004 4.84949C19.4452 4.46179 19.312 4.08929 19.1089 3.75445C18.9059 3.41962 18.6371 3.12937 18.3188 2.90122C18.0005 2.67307 17.6393 2.51173 17.257 2.42695C16.8747 2.34216 16.4791 2.33568 16.0942 2.40789L4.52914 4.38235H4.51595C3.79001 4.52117 3.14445 4.9319 2.71112 5.53064C3.36397 5.06628 4.14547 4.81725 4.94662 4.81829Z" fill="white"/>
<path d="M19.0093 5.87476H4.94678C4.20111 5.87557 3.48621 6.17215 2.95894 6.69942C2.43167 7.22669 2.13509 7.94158 2.13428 8.68725V17.1248C2.13509 17.8704 2.43167 18.5853 2.95894 19.1126C3.48621 19.6399 4.20111 19.9364 4.94678 19.9373H19.0093C19.7549 19.9364 20.4698 19.6399 20.9971 19.1126C21.5244 18.5853 21.821 17.8704 21.8218 17.1248V8.68725C21.821 7.94158 21.5244 7.22669 20.9971 6.69942C20.4698 6.17215 19.7549 5.87557 19.0093 5.87476ZM16.9219 14.3123C16.6437 14.3123 16.3719 14.2298 16.1406 14.0753C15.9093 13.9207 15.7291 13.7011 15.6227 13.4442C15.5162 13.1872 15.4884 12.9044 15.5426 12.6317C15.5969 12.3589 15.7308 12.1083 15.9275 11.9116C16.1242 11.715 16.3747 11.581 16.6475 11.5268C16.9203 11.4725 17.2031 11.5004 17.46 11.6068C17.717 11.7132 17.9366 11.8935 18.0911 12.1247C18.2456 12.356 18.3281 12.6279 18.3281 12.906C18.3281 13.279 18.18 13.6366 17.9162 13.9004C17.6525 14.1641 17.2948 14.3123 16.9219 14.3123Z" fill="white"/>
<path d="M2.15616 11.6514V7.27881C2.15616 6.32651 2.6835 4.72998 4.51382 4.38413C6.06729 4.09277 7.60538 4.09277 7.60538 4.09277C7.60538 4.09277 8.61612 4.7959 7.78116 4.7959C6.9462 4.7959 6.96817 5.87256 7.78116 5.87256C8.59415 5.87256 7.78116 6.90527 7.78116 6.90527L4.50723 10.6187L2.15616 11.6514Z" fill="white"/>
</svg>
